# xmcd
#
# Track frame offsets:
#	150
#	19024
#	35743
#	52454
#	71331
#	89750
#	105118
#	122959
#	139848
#	156794
#	174586
#	194500
#	214281
#	232359
#	248828
#	266604
#	284954
#	308181
#	325990
#	340036
#
# Disc length: 4779 seconds
#
# Revision: 2
# Processed by: cddbd v1.4b41PL2 Copyright (c) Steve Scherf et al.
# Submitted via: audiograbber 1.80
#
DISCID=4112a914
DTITLE=Kenny Rogers - Islands In The Stream
DYEAR=1900
DGENRE=
TTITLE0=Islands In The Stream
TTITLE1=Eyes That See In The Dark
TTITLE2=Crazy
TTITLE3=Buried Treasure
TTITLE4=I Don't Know Why
TTITLE5=The Factory
TTITLE6=We're Doin' Alright
TTITLE7=Twenty Years Ago
TTITLE8=The Stranger
TTITLE9=This Woman
TTITLE10=Dream Dancin'
TTITLE11=What About Me?
TTITLE12=The Best Of Me
TTITLE13=Evening Star
TTITLE14=Life Is Good, Love Is Better
TTITLE15=Tomb Of The Unknown Love
TTITLE16=I Prefer The Moonlight
TTITLE17=Make No Mistake, She's Mine
TTITLE18=Morning Desire
TTITLE19=I Don't Call Him Daddy
EXTD=The greatest hits 1983-88\nThis compilation: (P) 1998 Music Collection Int
EXTD=ernational Ltd. (c) 1998 Music Collection International Ltd.\nMCI. 76 Dean
EXTD=Street, London, W1V 5HA, A VCI pic company. www.vci.co.uk\n
EXTT0=
EXTT1=
EXTT2=
EXTT3=
EXTT4=
EXTT5=
EXTT6=
EXTT7=
EXTT8=
EXTT9=
EXTT10=
EXTT11=
EXTT12=
EXTT13=
EXTT14=
EXTT15=
EXTT16=
EXTT17=
EXTT18=
EXTT19=
PLAYORDER=
